#!OML:ASF H:\Terrain\Patient Classification 1\Walking\liu\liu.ASF
:FULLY-SPECIFIED
:DEGREES
258
root 9.69164 17.1746 22.5383 10.3089 -10.4381 -5.32603
lowerback -5.37439 3.64548 2.82451
upperback 0.547176 4.53228 3.95723
thorax 3.47376 2.26908 2.88632
lowerneck -20.4172 -3.30456 -9.73772
upperneck 18.6334 -3.69104 9.21711
head 9.62004 -1.37293 4.32579
rclavicle -3.84648e-014 -3.97569e-014
rhumerus -20.5918 37.1042 -82.8861
rradius 51.0855
rwrist -25.2413
rhand -30.8059 -18.841
rfingers 7.12502
rthumb -4.0957 -48.7813
lclavicle -3.84648e-014 -3.97569e-014
lhumerus -57.4718 -10.8101 96.4498
lradius 21.8624
lwrist -6.07145
lhand -5.59716 -26.812
lfingers 7.12502
lthumb 20.2196 2.15563
rfemur 13.8068 3.60246 29.3499
rtibia 0
rfoot -3.35104 9.52972
rtoes -19.535
lfemur -42.7184 -2.92872 -9.63352
ltibia 19.4558
lfoot -18.4442 15.1509
ltoes -8.7502
259
root 9.69767 17.141 22.7567 10.2431 -10.4689 -5.1244
lowerback -5.11728 3.71867 2.56972
upperback 0.496173 4.66692 3.85676
thorax 3.26053 2.33353 2.9115
lowerneck -21.0475 -3.55144 -9.92114
upperneck 19.056 -3.98798 9.40214
head 9.92454 -1.48961 4.3924
rclavicle -2.03754e-014 -3.97569e-015
rhumerus -19.9485 37.2301 -82.3568
rradius 51.6959
rwrist -24.7323
rhand -31.0942 -18.9003
rfingers 7.12502
rthumb -4.37412 -48.8351
lclavicle -2.03754e-014 -3.97569e-015
lhumerus -57.9081 -10.488 95.7986
lradius 21.5322
lwrist -6.39786
lhand -5.50938 -26.7309
lfingers 7.12502
lthumb 20.3039 2.22775
rfemur 14.6042 3.64029 28.9606
rtibia -1.27222e-014
rfoot -2.61833 9.54843
rtoes -17.7837
lfemur -43.1177 -3.14493 -9.69029
ltibia 18.9894
lfoot -18.4328 15.5265
ltoes -8.02544
260
root 9.70947 17.1104 23.0025 10.1122 -10.5584 -5.18414
lowerback -5.28608 3.79298 2.66598
upperback 0.750747 4.74021 3.82641
thorax 3.62783 2.37085 2.85983
lowerneck -22.7613 -4.04392 -9.64092
upperneck 20.0676 -4.58159 9.03506
head 10.6524 -1.74656 4.14579
rclavicle 8.44835e-015 -1.03368e-014
rhumerus -18.8726 37.4811 -81.5539
rradius 52.2662
rwrist -24.438
rhand -31.4187 -19.2186
rfingers 7.12502
rthumb -4.68743 -49.1468
lclavicle 8.44835e-015 -1.03368e-014
lhumerus -57.9667 -10.1163 95.0646
lradius 21.2332
lwrist -6.6749
lhand -5.14315 -26.4351
lfingers 7.12502
lthumb 20.6559 2.48571
rfemur 15.5978 3.78183 28.7397
rtibia -4.77083e-014
rfoot -1.88691 9.45192
rtoes -15.8754
lfemur -43.2192 -2.84483 -9.90795
ltibia 18.7526
lfoot -17.9415 15.9765
ltoes -9.8314
261
root 9.72531 17.0692 23.24 10.161 -10.6206 -5.66796
lowerback -5.32858 3.83063 3.16463
upperback 0.906921 4.74483 3.85836
thorax 3.85257 2.38218 2.63045
lowerneck -23.2548 -3.9312 -9.06704
upperneck 20.0063 -4.51952 8.81425
head 10.6935 -1.68822 3.97622
rclavicle -1.28216e-014 2.22639e-014
rhumerus -17.824 37.6845 -81.0238
rradius 52.7465
rwrist -24.2223
rhand -31.7187 -19.4973
rfingers 7.12502
rthumb -4.97709 -49.4188
lclavicle -1.28216e-014 2.22639e-014
lhumerus -58.0425 -9.52948 94.1192
lradius 20.9003
lwrist -7.01348
lhand -5.38778 -26.5218
lfingers 7.12502
lthumb 20.4208 2.4244
rfemur 16.4519 3.96964 29.0299
rtibia 3.81667e-014
rfoot -1.03878 9.09221
rtoes -15.6336
lfemur -43.4544 -2.18176 -9.86245
ltibia 18.497
lfoot -16.9693 15.9658
ltoes -11.7199
262
root 9.73797 17.0315 23.4729 10.2025 -10.5274 -6.06868
lowerback -4.97901 3.86143 3.54282
upperback 0.728658 4.79015 3.87237
thorax 3.50026 2.41142 2.40305
lowerneck -23.3169 -3.90186 -8.73113
upperneck 20.0346 -4.56347 8.6941
head 10.7081 -1.69492 3.86882
rclavicle 5.26779e-015 -1.90833e-014
rhumerus -17.5397 37.7328 -80.902
rradius 53.1368
rwrist -24.2135
rhand -32.0517 -18.8269
rfingers 7.12502
rthumb -5.2986 -48.7407
lclavicle 5.26779e-015 -1.90833e-014
lhumerus -58.4392 -8.95992 93.1365
lradius 20.4738
lwrist -7.16749
lhand -5.52392 -26.7449
lfingers 7.12502
lthumb 20.29 2.2153
rfemur 17.2698 3.98797 29.3053
rtibia -3.49861e-014
rfoot -0.0425429 8.63816
rtoes -14.9056
lfemur -43.4882 -0.871102 -10.4815
ltibia 18.879
lfoot -16.9691 14.1076
ltoes -9.94239
263
root 9.74987 16.9746 23.7291 10.1715 -10.3079 -6.48176
lowerback -4.84588 3.88527 3.88481
upperback 0.579596 4.81233 4.00699
thorax 3.28773 2.42607 2.33719
lowerneck -22.9808 -3.9151 -8.72504
upperneck 19.8949 -4.5562 8.51037
head 10.5892 -1.72121 3.79764
rclavicle -2.96189e-014 -2.38542e-015
rhumerus -17.5689 37.5669 -80.6583
rradius 53.5515
rwrist -24.0248
rhand -32.0414 -18.2469
rfingers 7.12502
rthumb -5.28866 -48.1609
lclavicle -2.96189e-014 -2.38542e-015
lhumerus -58.6541 -7.91096 91.6873
lradius 19.9258
lwrist -8.20124
lhand -5.1733 -26.8015
lfingers 7.12502
lthumb 20.6269 2.12245
rfemur 18.2747 3.89013 29.5582
rtibia 3.18055e-014
rfoot 0.598818 8.5071
rtoes -13.7432
lfemur -43.7126 0.116183 -10.9604
ltibia 19.6901
lfoot -16.6881 12.6266
ltoes -9.72306
264
root 9.76468 16.9117 23.9941 10.1072 -10.0928 -6.94239
lowerback -5.02401 3.93468 4.30298
upperback 0.662882 4.82759 4.20099
thorax 3.493 2.43998 2.3283
lowerneck -23.313 -4.20045 -9.06171
upperneck 19.9645 -4.85496 8.6748
head 10.7196 -1.85639 3.86712
rclavicle -9.93923e-016 -2.22639e-014
rhumerus -17.3251 37.3188 -80.1092
rradius 53.9441
rwrist -23.8075
rhand -31.954 -18.2633
rfingers 7.12502
rthumb -5.20429 -48.1794
lclavicle -9.93923e-016 -2.22639e-014
lhumerus -58.4695 -6.65787 90.0388
lradius 19.1894
lwrist -9.9589
lhand -5.33808 -27.1617
lfingers 7.12502
lthumb 20.4686 1.77939
rfemur 19.3061 3.80735 29.8283
rtibia 1.59028e-014
rfoot 1.15215 8.63145
rtoes -13.784
lfemur -43.9824 1.19886 -11.5076
ltibia 20.9674
lfoot -16.2339 11.12
ltoes -9.71383
265
root 9.77664 16.8661 24.2558 9.98424 -9.96071 -7.08928
lowerback -5.13076 4.03797 4.45851
upperback 0.713989 4.94262 4.24568
thorax 3.61515 2.5003 2.31079
lowerneck -23.4336 -4.39356 -9.53454
upperneck 20.018 -5.08383 9.19101
head 10.8151 -1.93184 4.10177
rclavicle 5.06901e-014 3.65764e-014
rhumerus -17.191 37.0155 -79.6506
rradius 54.2594
rwrist -23.9161
rhand -32.1012 -18.7015
rfingers 7.12502
rthumb -5.34641 -48.614
lclavicle 5.06901e-014 3.65764e-014
lhumerus -58.3302 -5.67367 88.5333
lradius 18.4438
lwrist -11.4124
lhand -5.62101 -27.5293
lfingers 7.12502
lthumb 20.1966 1.44074
rfemur 20.2841 3.75676 29.7671
rtibia -3.18055e-014
rfoot 2.15828 8.75916
rtoes -14.5849
lfemur -44.102 2.39422 -12.4838
ltibia 22.4091
lfoot -15.0315 9.52714
ltoes -10.6827
266
root 9.78467 16.8205 24.5149 9.96092 -9.87411 -7.0218
lowerback -5.14392 4.17327 4.35127
upperback 0.531403 5.14117 4.21851
thorax 3.42469 2.59562 2.34894
lowerneck -22.7336 -4.41511 -10.139
upperneck 19.7013 -5.11837 9.86009
head 10.6132 -1.93128 4.43955
rclavicle 1.38155e-014 3.26007e-014
rhumerus -17.5161 36.5362 -79.4377
rradius 54.5262
rwrist -24.0997
rhand -32.4444 -18.8722
rfingers 7.12502
rthumb -5.67784 -48.7762
lclavicle 1.38155e-014 3.26007e-014
lhumerus -58.3822 -4.64915 86.8965
lradius 17.7837
lwrist -12.6089
lhand -5.14787 -27.2858
lfingers 7.12502
lthumb 20.6513 1.63558
rfemur 21.1461 3.73866 29.494
rtibia 2.22639e-014
rfoot 3.46258 8.6663
rtoes -15.186
lfemur -44.4335 3.43466 -13.5514
ltibia 24.1209
lfoot -12.9224 8.16571
ltoes -13.5044
267
root 9.79321 16.79 24.7734 10.0545 -9.82129 -7.15045
lowerback -5.34913 4.32841 4.35335
upperback 0.416172 5.33642 4.3084
thorax 3.41074 2.69121 2.46839
lowerneck -22.6599 -4.71736 -10.4425
upperneck 19.7439 -5.45076 9.87188
head 10.6636 -2.10715 4.44136
rclavicle -2.03754e-014 -4.77083e-015
rhumerus -17.7956 35.993 -79.109
rradius 54.7299
rwrist -24.2011
rhand -32.7835 -18.6899
rfingers 7.12502
rthumb -6.00521 -48.5848
lclavicle -2.03754e-014 -4.77083e-015
lhumerus -58.1153 -3.47935 85.2276
lradius 16.9744
lwrist -13.7988
lhand -4.73454 -27.079
lfingers 7.12502
lthumb 21.0484 1.79873
rfemur 21.8397 3.79145 29.442
rtibia -1.27222e-014
rfoot 4.79331 8.42836
rtoes -15.4873
lfemur -44.9016 4.10188 -14.0364
ltibia 25.8143
lfoot -10.0069 7.91015
ltoes -15.0132
268
root 9.80116 16.7799 25.0371 10.0122 -9.88271 -7.36264
lowerback -5.47264 4.5348 4.45754
upperback 0.388568 5.59376 4.4
thorax 3.45045 2.82002 2.53829
lowerneck -22.343 -4.98167 -10.6833
upperneck 19.4438 -5.7563 9.89765
head 10.541 -2.27027 4.43364
rclavicle -1.14301e-014 2.38542e-015
rhumerus -18.0457 35.1502 -78.7986
rradius 54.7277
rwrist -24.0221
rhand -32.7412 -19.2097
rfingers 7.12502
rthumb -5.96438 -49.1058
lclavicle -1.14301e-014 2.38542e-015
lhumerus -57.7341 -2.28809 83.5009
lradius 15.9915
lwrist -15.5785
lhand -5.48954 -27.3343
lfingers 7.12502
lthumb 20.323 1.62239
rfemur 22.6093 3.9459 29.4599
rtibia -3.18055e-015
rfoot 6.36227 8.03777
rtoes -16.0086
lfemur -45.2593 4.56986 -14.1147
ltibia 27.4402
lfoot -7.11409 8.17197
ltoes -16.0223
